<svg xmlns="http://www.w3.org/2000/svg" width="512" height="512" viewBox="0 0 680 680">
  <defs>
    <clipPath id="roundclip">
      <rect x="140" y="140" width="400" height="400" rx="72"/>
    </clipPath>
  </defs>
  <rect x="140" y="140" width="400" height="400" rx="72" fill="#f5ead6"/>
  <g clip-path="url(#roundclip)" opacity="0.08">
    <line x1="140" y1="160" x2="540" y2="560" stroke="#8b6914" stroke-width="1"/>
    <line x1="140" y1="200" x2="540" y2="600" stroke="#8b6914" stroke-width="1"/>
    <line x1="140" y1="240" x2="480" y2="580" stroke="#8b6914" stroke-width="1"/>
    <line x1="160" y1="140" x2="560" y2="540" stroke="#8b6914" stroke-width="1"/>
    <line x1="200" y1="140" x2="560" y2="500" stroke="#8b6914" stroke-width="1"/>
    <line x1="240" y1="140" x2="560" y2="460" stroke="#8b6914" stroke-width="1"/>
    <line x1="280" y1="140" x2="560" y2="420" stroke="#8b6914" stroke-width="1"/>
  </g>
  <g clip-path="url(#roundclip)">
    <path d="M 290 195 L 270 210 L 255 215 L 248 225 L 252 240 L 240 248 L 230 260 L 225 275 L 235 285 L 228 300 L 230 315 L 240 325 L 238 340 L 248 355 L 255 370 L 265 380 L 275 390 L 285 400 L 295 408 L 308 412 L 320 415 L 335 412 L 348 405 L 358 395 L 368 382 L 375 368 L 380 352 L 390 342 L 400 335 L 408 320 L 412 305 L 408 290 L 415 278 L 418 262 L 412 250 L 400 242 L 395 228 L 385 218 L 372 210 L 358 205 L 342 198 L 325 193 L 308 192 Z" fill="#c9a96e" stroke="#8b5e1a" stroke-width="1.5" stroke-linejoin="round"/>
    <path d="M 248 240 L 238 235 L 225 232 L 210 235 L 200 245 L 198 258 L 205 268 L 218 272 L 230 268 L 238 258 L 240 248 Z" fill="#c9a96e" stroke="#8b5e1a" stroke-width="1.5"/>
    <path d="M 290 195 L 285 230 L 295 260 L 308 285 L 310 310 L 305 340 L 310 370 L 320 415" fill="none" stroke="#8b5e1a" stroke-width="0.8" stroke-dasharray="3 2" opacity="0.5"/>
    <path d="M 342 198 L 348 230 L 355 258 L 348 285 L 340 310 L 342 340 L 348 370 L 335 412" fill="none" stroke="#8b5e1a" stroke-width="0.8" stroke-dasharray="3 2" opacity="0.5"/>
    <path d="M 248 270 L 275 280 L 310 285 L 342 280 L 380 285" fill="none" stroke="#8b5e1a" stroke-width="0.8" stroke-dasharray="3 2" opacity="0.5"/>
    <path d="M 235 315 L 270 320 L 310 315 L 348 318 L 390 320" fill="none" stroke="#8b5e1a" stroke-width="0.8" stroke-dasharray="3 2" opacity="0.5"/>
    <ellipse cx="430" cy="355" rx="14" ry="22" fill="#c9a96e" stroke="#8b5e1a" stroke-width="1.2" transform="rotate(-10 430 355)"/>
  </g>
  <rect x="140" y="140" width="400" height="400" rx="72" fill="none" stroke="#8b5e1a" stroke-width="3"/>
  <rect x="150" y="150" width="380" height="380" rx="64" fill="none" stroke="#8b5e1a" stroke-width="1" opacity="0.5"/>
  <g fill="#8b5e1a">
    <polygon points="155,175 165,165 175,175 165,185" opacity="0.7"/>
    <polygon points="505,175 515,165 525,175 515,185" opacity="0.7"/>
    <polygon points="155,505 165,495 175,505 165,515" opacity="0.7"/>
    <polygon points="505,505 515,495 525,505 515,515" opacity="0.7"/>
  </g>
  <g transform="translate(480, 455)">
    <circle cx="0" cy="0" r="26" fill="#f5ead6" stroke="#8b5e1a" stroke-width="1"/>
    <polygon points="0,-22 -5,-8 0,-12 5,-8" fill="#8b2020"/>
    <polygon points="0,22 -5,8 0,12 5,8" fill="#8b5e1a"/>
    <polygon points="22,0 8,-5 12,0 8,5" fill="#8b5e1a"/>
    <polygon points="-22,0 -8,-5 -12,0 -8,5" fill="#8b5e1a"/>
    <line x1="-14" y1="-14" x2="14" y2="14" stroke="#8b5e1a" stroke-width="0.5" opacity="0.4"/>
    <line x1="14" y1="-14" x2="-14" y2="14" stroke="#8b5e1a" stroke-width="0.5" opacity="0.4"/>
    <text x="0" y="-27" text-anchor="middle" font-family="Georgia, serif" font-size="11" font-weight="bold" fill="#8b2020">N</text>
    <circle cx="0" cy="0" r="3" fill="#8b5e1a"/>
  </g>
  <text x="340" y="502" text-anchor="middle" font-family="Georgia, serif" font-size="13" font-weight="bold" fill="#8b5e1a" letter-spacing="4" opacity="0.8">F G Q</text>
  <g fill="#8b5e1a" opacity="0.4">
    <circle cx="340" cy="145" r="2.5"/>
    <circle cx="340" cy="535" r="2.5"/>
    <circle cx="145" cy="340" r="2.5"/>
    <circle cx="535" cy="340" r="2.5"/>
  </g>
</svg>
